<?xml version="1.0" standalone="yes"?>

<svg version="1.1" viewBox="0.0 0.0 547.2152230971128 482.09186351706035" fill="none" stroke="none" stroke-linecap="square" stroke-miterlimit="10" xmlns="http://www.w3.org/2000/svg" xmlns:xlink="http://www.w3.org/1999/xlink"><clipPath id="p.0"><path d="m0 0l547.2152 0l0 482.09186l-547.2152 0l0 -482.09186z" clip-rule="nonzero"></path></clipPath><g clip-path="url(#p.0)"><path fill="#000000" fill-opacity="0.0" d="m0 0l547.2152 0l0 482.09186l-547.2152 0z" fill-rule="nonzero"></path><path fill="#999999" d="m119.13123 0l428.22046 0l0 105.70079l-428.22046 0z" fill-rule="nonzero"></path><path stroke="#ffffff" stroke-width="1.0" stroke-linejoin="round" stroke-linecap="butt" d="m119.13123 0l428.22046 0l0 105.70079l-428.22046 0z" fill-rule="nonzero"></path><path fill="#ffffff" d="m232.14772 54.377502l6.0625 1.53125q-1.90625 7.46875 -6.859375 11.390625q-4.953125 3.921875 -12.109375 3.921875q-7.40625 0 -12.046875 -3.015625q-4.640625 -3.015625 -7.0625 -8.734375q-2.421875 -5.71875 -2.421875 -12.28125q0 -7.15625 2.734375 -12.484375q2.734375 -5.328125 7.78125 -8.09375q5.046875 -2.765625 11.109375 -2.765625q6.875 0 11.5625 3.5q4.6875 3.5 6.53125 9.84375l-5.96875 1.40625q-1.59375 -5.0 -4.625 -7.28125q-3.03125 -2.28125 -7.625 -2.28125q-5.28125 0 -8.828125 2.53125q-3.546875 2.53125 -4.984375 6.796875q-1.4375 4.265625 -1.4375 8.796875q0 5.84375 1.703125 10.203125q1.703125 4.359375 5.296875 6.515625q3.59375 2.15625 7.78125 2.15625q5.09375 0 8.625 -2.9375q3.53125 -2.9375 4.78125 -8.71875zm10.71875 -0.53125q0 -9.21875 5.125 -13.65625q4.28125 -3.6875 10.437485 -3.6875q6.84375 0 11.1875 4.484375q4.34375 4.484375 4.34375 12.390625q0 6.40625 -1.921875 10.078125q-1.921875 3.671875 -5.59375 5.703125q-3.671875 2.03125 -8.015625 2.03125q-6.9687347 0 -11.26561 -4.46875q-4.296875 -4.46875 -4.296875 -12.875zm5.78125 0q0 6.375 2.78125 9.546875q2.78125 3.171875 6.9999847 3.171875q4.1875 0 6.96875 -3.1875q2.78125 -3.1875 2.78125 -9.71875q0 -6.15625 -2.796875 -9.328125q-2.796875 -3.171875 -6.953125 -3.171875q-4.2187347 0 -6.9999847 3.15625q-2.78125 3.15625 -2.78125 9.53125zm31.906235 16.59375l0 -33.1875l5.0625 0l0 4.71875q3.65625 -5.46875 10.5625 -5.46875q3.0 0 5.515625 1.078125q2.515625 1.078125 3.765625 2.828125q1.25 1.75 1.75 4.15625q0.3125 1.5625 0.3125 5.46875l0 20.40625l-5.625 0l0 -20.1875q0 -3.4375 -0.65625 -5.140625q-0.65625 -1.703125 -2.328125 -2.71875q-1.671875 -1.015625 -3.921875 -1.015625q-3.59375 0 -6.203125 2.28125q-2.609375 2.28125 -2.609375 8.65625l0 18.125l-5.625 0zm47.875 -5.03125l0.8125 4.96875q-2.375 0.5 -4.25 0.5q-3.0625 0 -4.75 -0.96875q-1.6875 -0.96875 -2.375 -2.546875q-0.6875 -1.578125 -0.6875 -6.640625l0 -19.09375l-4.125 0l0 -4.375l4.125 0l0 -8.21875l5.59375 -3.375l0 11.59375l5.65625 0l0 4.375l-5.65625 0l0 19.40625q0 2.40625 0.296875 3.09375q0.296875 0.6875 0.96875 1.09375q0.671875 0.40625 1.921875 0.40625q0.9375 0 2.46875 -0.21875zm5.4375 5.03125l0 -33.1875l5.0625 0l0 5.03125q1.9375 -3.53125 3.578125 -4.65625q1.640625 -1.125 3.609375 -1.125q2.84375 0 5.78125 1.8125l-1.9375 5.21875q-2.0625 -1.21875 -4.125 -1.21875q-1.84375 0 -3.3125 1.109375q-1.46875 1.109375 -2.09375 3.078125q-0.9375 3.0 -0.9375 6.5625l0 17.375l-5.625 0zm19.28125 -16.59375q0 -9.21875 5.125 -13.65625q4.28125 -3.6875 10.4375 -3.6875q6.84375 0 11.1875 4.484375q4.34375 4.484375 4.34375 12.390625q0 6.40625 -1.921875 10.078125q-1.921875 3.671875 -5.59375 5.703125q-3.671875 2.03125 -8.015625 2.03125q-6.96875 0 -11.265625 -4.46875q-4.296875 -4.46875 -4.296875 -12.875zm5.78125 0q0 6.375 2.78125 9.546875q2.78125 3.171875 7.0 3.171875q4.1875 0 6.96875 -3.1875q2.78125 -3.1875 2.78125 -9.71875q0 -6.15625 -2.796875 -9.328125q-2.796875 -3.171875 -6.953125 -3.171875q-4.21875 0 -7.0 3.15625q-2.78125 3.15625 -2.78125 9.53125zm31.78125 16.59375l0 -45.8125l5.625 0l0 45.8125l-5.625 0zm14.21875 0l0 -45.8125l5.625 0l0 45.8125l-5.625 0zm37.0625 -10.6875l5.8125 0.71875q-1.375 5.09375 -5.09375 7.90625q-3.71875 2.8125 -9.5 2.8125q-7.28125 0 -11.546875 -4.484375q-4.265625 -4.484375 -4.265625 -12.578125q0 -8.375 4.3125 -13.0q4.3125 -4.625 11.1875 -4.625q6.65625 0 10.875 4.53125q4.21875 4.53125 4.21875 12.75q0 0.5 -0.03125 1.5l-24.75 0q0.3125 5.46875 3.09375 8.375q2.78125 2.90625 6.9375 2.90625q3.09375 0 5.28125 -1.625q2.1875 -1.625 3.46875 -5.1875zm-18.46875 -9.09375l18.53125 0q-0.375 -4.1875 -2.125 -6.28125q-2.6875 -3.25 -6.96875 -3.25q-3.875 0 -6.515625 2.59375q-2.640625 2.59375 -2.921875 6.9375zm31.28125 19.78125l0 -33.1875l5.0625 0l0 5.03125q1.9375 -3.53125 3.578125 -4.65625q1.640625 -1.125 3.609375 -1.125q2.84375 0 5.78125 1.8125l-1.9375 5.21875q-2.0625 -1.21875 -4.125 -1.21875q-1.84375 0 -3.3125 1.109375q-1.46875 1.109375 -2.09375 3.078125q-0.9375 3.0 -0.9375 6.5625l0 17.375l-5.625 0z" fill-rule="nonzero"></path><path fill="#b45f06" d="m119.13123 187.64305l428.22046 0l0 105.70079l-428.22046 0z" fill-rule="nonzero"></path><path stroke="#ffffff" stroke-width="1.0" stroke-linejoin="round" stroke-linecap="butt" d="m119.13123 187.64305l428.22046 0l0 105.70079l-428.22046 0z" fill-rule="nonzero"></path><path fill="#ffffff" d="m250.83522 258.08304l0 -45.812485l9.124985 0l10.84375 32.4375q1.5 4.53125 2.1875 6.78125q0.78125 -2.5 2.4375 -7.34375l10.96875 -31.875l8.15625 0l0 45.812485l-5.84375 0l0 -38.343735l-13.3125 38.343735l-5.46875 0l-13.25 -38.999985l0 38.999985l-5.8437347 0zm50.687485 -16.593735q0 -9.21875 5.125 -13.65625q4.28125 -3.6875 10.4375 -3.6875q6.84375 0 11.1875 4.484375q4.34375 4.484375 4.34375 12.390625q0 6.40625 -1.921875 10.078125q-1.921875 3.671875 -5.59375 5.7031097q-3.671875 2.03125 -8.015625 2.03125q-6.96875 0 -11.265625 -4.4687347q-4.296875 -4.46875 -4.296875 -12.875zm5.78125 0q0 6.375 2.78125 9.546875q2.78125 3.171875 7.0 3.171875q4.1875 0 6.96875 -3.1875q2.78125 -3.1875 2.78125 -9.71875q0 -6.15625 -2.796875 -9.328125q-2.796875 -3.171875 -6.953125 -3.171875q-4.21875 0 -7.0 3.15625q-2.78125 3.15625 -2.78125 9.53125zm53.4375 16.593735l0 -4.1874847q-3.15625 4.9374847 -9.28125 4.9374847q-3.96875 0 -7.296875 -2.1875q-3.328125 -2.1874847 -5.15625 -6.1093597q-1.828125 -3.921875 -1.828125 -9.015625q0 -4.96875 1.65625 -9.015625q1.65625 -4.046875 4.96875 -6.203125q3.3125 -2.15625 7.40625 -2.15625q3.0 0 5.34375 1.265625q2.34375 1.265625 3.8125 3.296875l0 -16.4375l5.59375 0l0 45.812485l-5.21875 0zm-17.78125 -16.562485q0 6.375 2.6875 9.53125q2.6875 3.15625 6.34375 3.15625q3.6875 0 6.265625 -3.015625q2.578125 -3.015625 2.578125 -9.203125q0 -6.8125 -2.625 -10.0q-2.625 -3.1875 -6.46875 -3.1875q-3.75 0 -6.265625 3.0625q-2.515625 3.0625 -2.515625 9.65625zm54.5625 5.875l5.8125 0.71875q-1.375 5.09375 -5.09375 7.9062347q-3.71875 2.8125 -9.5 2.8125q-7.28125 0 -11.546875 -4.4843597q-4.265625 -4.484375 -4.265625 -12.578125q0 -8.375 4.3125 -13.0q4.3125 -4.625 11.1875 -4.625q6.65625 0 10.875 4.53125q4.21875 4.53125 4.21875 12.75q0 0.5 -0.03125 1.5l-24.75 0q0.3125 5.46875 3.09375 8.375q2.78125 2.90625 6.9375 2.90625q3.09375 0 5.28125 -1.625q2.1875 -1.625 3.46875 -5.1875zm-18.46875 -9.09375l18.53125 0q-0.375 -4.1875 -2.125 -6.28125q-2.6875 -3.25 -6.96875 -3.25q-3.875 0 -6.515625 2.59375q-2.640625 2.59375 -2.921875 6.9375zm31.21875 19.781235l0 -45.812485l5.625 0l0 45.812485l-5.625 0z" fill-rule="nonzero"></path><path fill="#4a86e8" d="m119.13123 375.2861l428.22046 0l0 105.700775l-428.22046 0z" fill-rule="nonzero"></path><path stroke="#ffffff" stroke-width="1.0" stroke-linejoin="round" stroke-linecap="butt" d="m119.13123 375.2861l428.22046 0l0 105.700775l-428.22046 0z" fill-rule="nonzero"></path><path fill="#ffffff" d="m281.91333 445.7261l-17.75 -45.8125l6.5625 0l11.90625 33.28125q1.4375 4.0 2.40625 7.5q1.0625 -3.75 2.46875 -7.5l12.375 -33.28125l6.1875 0l-17.9375 45.8125l-6.21875 0zm28.90625 -39.34375l0 -6.46875l5.625 0l0 6.46875l-5.625 0zm0 39.34375l0 -33.1875l5.625 0l0 33.1875l-5.625 0zm36.90625 -10.6875l5.8125 0.71875q-1.375 5.09375 -5.09375 7.90625q-3.71875 2.8125 -9.5 2.8125q-7.28125 0 -11.546875 -4.484375q-4.265625 -4.484375 -4.265625 -12.578125q0 -8.375 4.3125 -13.0q4.3125 -4.625 11.1875 -4.625q6.65625 0 10.875 4.53125q4.21875 4.53125 4.21875 12.75q0 0.5 -0.03125 1.5l-24.75 0q0.3125 5.46875 3.09375 8.375q2.78125 2.90625 6.9375 2.90625q3.09375 0 5.28125 -1.625q2.1875 -1.625 3.46875 -5.1875zm-18.46875 -9.09375l18.53125 0q-0.375 -4.1875 -2.125 -6.28125q-2.6875 -3.25 -6.96875 -3.25q-3.875 0 -6.515625 2.59375q-2.640625 2.59375 -2.921875 6.9375zm37.46875 19.78125l-10.15625 -33.1875l5.8125 0l5.28125 19.15625l1.96875 7.125q0.125 -0.53125 1.71875 -6.84375l5.28125 -19.4375l5.78125 0l4.96875 19.25l1.65625 6.34375l1.90625 -6.40625l5.6875 -19.1875l5.46875 0l-10.375 33.1875l-5.84375 0l-5.28125 -19.875l-1.28125 -5.65625l-6.71875 25.53125l-5.875 0z" fill-rule="nonzero"></path><path fill="#000000" fill-opacity="0.0" d="m333.24146 105.70079l0 81.95276" fill-rule="nonzero"></path><path stroke="#000000" stroke-width="4.0" stroke-linejoin="round" stroke-linecap="butt" d="m333.24146 105.70079l0 57.95276" fill-rule="evenodd"></path><path fill="#000000" stroke="#000000" stroke-width="4.0" stroke-linecap="butt" d="m326.63455 163.65355l6.606903 18.15239l6.6069336 -18.15239z" fill-rule="evenodd"></path><path fill="#000000" fill-opacity="0.0" d="m333.24146 293.34384l0 81.95276" fill-rule="nonzero"></path><path stroke="#000000" stroke-width="4.0" stroke-linejoin="round" stroke-linecap="butt" d="m333.24146 293.34384l0 57.95276" fill-rule="evenodd"></path><path fill="#000000" stroke="#000000" stroke-width="4.0" stroke-linecap="butt" d="m326.63455 351.2966l6.606903 18.152374l6.6069336 -18.152374z" fill-rule="evenodd"></path><path fill="#000000" fill-opacity="0.0" d="m360.3596 374.2362l0.22045898 -79.8425" fill-rule="nonzero"></path><path stroke="#000000" stroke-width="4.0" stroke-linejoin="round" stroke-linecap="butt" d="m360.3596 374.2362l0.15420532 -55.84262" fill-rule="evenodd"></path><path fill="#000000" stroke="#000000" stroke-width="4.0" stroke-linecap="butt" d="m367.1207 318.41187l-6.556793 -18.170563l-6.657013 18.134064z" fill-rule="evenodd"></path><path fill="#000000" fill-opacity="0.0" d="m119.92697 433.64304c-17.207787 -25.81189 -101.658356 -95.56998 -103.24672 -154.87137c-1.5883627 -59.301407 78.097115 -167.44751 93.71654 -200.93701" fill-rule="nonzero"></path><path stroke="#000000" stroke-width="4.0" stroke-linejoin="round" stroke-linecap="butt" d="m119.92697 433.64304c-17.207787 -25.81189 -101.658356 -95.56998 -103.24672 -154.87137c-1.5883627 -59.301407 78.097115 -167.44751 93.71654 -200.93701" fill-rule="nonzero"></path><path fill="#000000" fill-opacity="0.0" d="m94.50131 105.70079l19.874016 -34.23622" fill-rule="nonzero"></path><path stroke="#000000" stroke-width="4.0" stroke-linejoin="round" stroke-linecap="butt" d="m94.50131 105.70079l7.8250732 -13.47995" fill-rule="evenodd"></path><path fill="#000000" stroke="#000000" stroke-width="4.0" stroke-linecap="butt" d="m108.040344 95.53778l3.3992538 -19.015938l-14.827187 12.382057z" fill-rule="evenodd"></path></g></svg>

